<svg id="visual" viewBox="0 0 540 960" width="540" height="960" xmlns="http://www.w3.org/2000/svg" xmlns:xlink="http://www.w3.org/1999/xlink" version="1.1"><g stroke-width="1" stroke-linejoin="bevel"><path d="M234 478L261 422L197 477Z" fill="#9b9a9a" stroke="#9b9a9a"></path><path d="M261 422L218 379L197 477Z" fill="#949393" stroke="#949393"></path><path d="M218 379L142 450L197 477Z" fill="#838181" stroke="#838181"></path><path d="M234 478L299 452L261 422Z" fill="#a2a1a1" stroke="#a2a1a1"></path><path d="M261 422L273 335L218 379Z" fill="#a5a5a5" stroke="#a5a5a5"></path><path d="M218 379L133 395L142 450Z" fill="#979797" stroke="#979797"></path><path d="M142 450L159 511L197 477Z" fill="#918f8f" stroke="#918f8f"></path><path d="M197 477L263 542L234 478Z" fill="#979797" stroke="#979797"></path><path d="M263 542L311 458L299 452Z" fill="#949393" stroke="#949393"></path><path d="M263 542L299 452L234 478Z" fill="#a2a1a1" stroke="#a2a1a1"></path><path d="M325 350L273 335L261 422Z" fill="#838181" stroke="#838181"></path><path d="M133 395L121 412L142 450Z" fill="#949393" stroke="#949393"></path><path d="M142 450L149 517L159 511Z" fill="#8a8888" stroke="#8a8888"></path><path d="M106 514L149 517L142 450Z" fill="#838181" stroke="#838181"></path><path d="M159 511L263 542L197 477Z" fill="#a5a5a5" stroke="#a5a5a5"></path><path d="M331 418L261 422L299 452Z" fill="#949393" stroke="#949393"></path><path d="M218 379L146 336L133 395Z" fill="#918f8f" stroke="#918f8f"></path><path d="M311 458L331 418L299 452Z" fill="#868585" stroke="#868585"></path><path d="M265 575L263 542L159 511Z" fill="#a5a5a5" stroke="#a5a5a5"></path><path d="M216 304L146 336L218 379Z" fill="#a5a5a5" stroke="#a5a5a5"></path><path d="M133 395L94 426L121 412Z" fill="#9b9a9a" stroke="#9b9a9a"></path><path d="M55 325L94 426L133 395Z" fill="#a2a1a1" stroke="#a2a1a1"></path><path d="M121 412L94 426L142 450Z" fill="#918f8f" stroke="#918f8f"></path><path d="M376 501L343 451L311 458Z" fill="#9e9e9e" stroke="#9e9e9e"></path><path d="M311 458L343 451L331 418Z" fill="#a5a5a5" stroke="#a5a5a5"></path><path d="M273 335L216 304L218 379Z" fill="#a5a5a5" stroke="#a5a5a5"></path><path d="M337 285L265 311L273 335Z" fill="#868585" stroke="#868585"></path><path d="M273 335L265 311L216 304Z" fill="#918f8f" stroke="#918f8f"></path><path d="M73 455L106 514L142 450Z" fill="#949393" stroke="#949393"></path><path d="M162 626L265 575L159 511Z" fill="#979797" stroke="#979797"></path><path d="M389 392L325 350L331 418Z" fill="#838181" stroke="#838181"></path><path d="M331 418L325 350L261 422Z" fill="#9b9a9a" stroke="#9b9a9a"></path><path d="M0 444L73 455L0 399Z" fill="#9e9e9e" stroke="#9e9e9e"></path><path d="M94 426L73 455L142 450Z" fill="#8a8888" stroke="#8a8888"></path><path d="M162 626L159 511L149 517Z" fill="#838181" stroke="#838181"></path><path d="M263 542L376 501L311 458Z" fill="#918f8f" stroke="#918f8f"></path><path d="M265 575L278 578L263 542Z" fill="#979797" stroke="#979797"></path><path d="M278 578L293 580L263 542Z" fill="#979797" stroke="#979797"></path><path d="M293 580L376 501L263 542Z" fill="#9b9a9a" stroke="#9b9a9a"></path><path d="M343 451L389 392L331 418Z" fill="#838181" stroke="#838181"></path><path d="M265 311L208 260L216 304Z" fill="#918f8f" stroke="#918f8f"></path><path d="M216 304L184 253L146 336Z" fill="#a5a5a5" stroke="#a5a5a5"></path><path d="M263 213L208 260L265 311Z" fill="#838181" stroke="#838181"></path><path d="M413 401L389 392L343 451Z" fill="#8d8c8c" stroke="#8d8c8c"></path><path d="M325 350L337 285L273 335Z" fill="#a5a5a5" stroke="#a5a5a5"></path><path d="M208 260L184 253L216 304Z" fill="#a2a1a1" stroke="#a2a1a1"></path><path d="M146 336L55 325L133 395Z" fill="#838181" stroke="#838181"></path><path d="M389 392L385 345L325 350Z" fill="#838181" stroke="#838181"></path><path d="M184 253L94 288L146 336Z" fill="#868585" stroke="#868585"></path><path d="M385 345L337 285L325 350Z" fill="#949393" stroke="#949393"></path><path d="M208 260L255 181L184 253Z" fill="#9e9e9e" stroke="#9e9e9e"></path><path d="M94 288L55 325L146 336Z" fill="#a5a5a5" stroke="#a5a5a5"></path><path d="M140 639L162 626L84 625Z" fill="#a5a5a5" stroke="#a5a5a5"></path><path d="M84 625L162 626L149 517Z" fill="#a2a1a1" stroke="#a2a1a1"></path><path d="M265 575L219 638L278 578Z" fill="#9b9a9a" stroke="#9b9a9a"></path><path d="M278 578L315 657L293 580Z" fill="#a5a5a5" stroke="#a5a5a5"></path><path d="M376 501L413 401L343 451Z" fill="#979797" stroke="#979797"></path><path d="M389 392L413 401L385 345Z" fill="#868585" stroke="#868585"></path><path d="M162 626L219 638L265 575Z" fill="#838181" stroke="#838181"></path><path d="M371 617L406 510L376 501Z" fill="#9e9e9e" stroke="#9e9e9e"></path><path d="M376 501L448 468L413 401Z" fill="#8a8888" stroke="#8a8888"></path><path d="M371 617L376 501L293 580Z" fill="#a5a5a5" stroke="#a5a5a5"></path><path d="M441 269L358 271L385 345Z" fill="#8a8888" stroke="#8a8888"></path><path d="M385 345L358 271L337 285Z" fill="#a2a1a1" stroke="#a2a1a1"></path><path d="M337 285L263 213L265 311Z" fill="#868585" stroke="#868585"></path><path d="M0 399L73 455L94 426Z" fill="#a2a1a1" stroke="#a2a1a1"></path><path d="M0 509L20 549L106 514Z" fill="#8d8c8c" stroke="#8d8c8c"></path><path d="M84 625L149 517L106 514Z" fill="#8d8c8c" stroke="#8d8c8c"></path><path d="M162 626L164 682L219 638Z" fill="#9b9a9a" stroke="#9b9a9a"></path><path d="M55 325L0 399L94 426Z" fill="#8d8c8c" stroke="#8d8c8c"></path><path d="M358 271L263 213L337 285Z" fill="#868585" stroke="#868585"></path><path d="M111 203L68 262L94 288Z" fill="#8d8c8c" stroke="#8d8c8c"></path><path d="M0 509L106 514L73 455Z" fill="#838181" stroke="#838181"></path><path d="M94 288L68 262L55 325Z" fill="#a2a1a1" stroke="#a2a1a1"></path><path d="M55 325L0 275L0 399Z" fill="#838181" stroke="#838181"></path><path d="M145 213L94 288L184 253Z" fill="#979797" stroke="#979797"></path><path d="M0 444L0 509L73 455Z" fill="#8d8c8c" stroke="#8d8c8c"></path><path d="M0 509L0 513L20 549Z" fill="#918f8f" stroke="#918f8f"></path><path d="M59 615L84 625L106 514Z" fill="#918f8f" stroke="#918f8f"></path><path d="M255 181L145 213L184 253Z" fill="#8a8888" stroke="#8a8888"></path><path d="M406 510L448 468L376 501Z" fill="#9b9a9a" stroke="#9b9a9a"></path><path d="M499 331L441 269L385 345Z" fill="#9e9e9e" stroke="#9e9e9e"></path><path d="M315 657L371 617L293 580Z" fill="#a2a1a1" stroke="#a2a1a1"></path><path d="M406 510L445 559L448 468Z" fill="#918f8f" stroke="#918f8f"></path><path d="M20 549L59 615L106 514Z" fill="#a2a1a1" stroke="#a2a1a1"></path><path d="M72 182L51 262L68 262Z" fill="#9b9a9a" stroke="#9b9a9a"></path><path d="M68 262L51 262L55 325Z" fill="#949393" stroke="#949393"></path><path d="M327 701L315 657L246 723Z" fill="#918f8f" stroke="#918f8f"></path><path d="M219 638L315 657L278 578Z" fill="#a5a5a5" stroke="#a5a5a5"></path><path d="M113 697L143 675L140 639Z" fill="#868585" stroke="#868585"></path><path d="M140 639L164 682L162 626Z" fill="#949393" stroke="#949393"></path><path d="M113 697L140 639L84 625Z" fill="#a5a5a5" stroke="#a5a5a5"></path><path d="M143 675L164 682L140 639Z" fill="#979797" stroke="#979797"></path><path d="M143 675L157 682L164 682Z" fill="#918f8f" stroke="#918f8f"></path><path d="M146 164L111 203L145 213Z" fill="#9b9a9a" stroke="#9b9a9a"></path><path d="M145 213L111 203L94 288Z" fill="#979797" stroke="#979797"></path><path d="M301 171L255 181L263 213Z" fill="#979797" stroke="#979797"></path><path d="M263 213L255 181L208 260Z" fill="#a2a1a1" stroke="#a2a1a1"></path><path d="M371 617L445 559L406 510Z" fill="#949393" stroke="#949393"></path><path d="M0 218L0 275L51 262Z" fill="#a2a1a1" stroke="#a2a1a1"></path><path d="M51 262L0 275L55 325Z" fill="#9e9e9e" stroke="#9e9e9e"></path><path d="M445 559L487 466L448 468Z" fill="#9b9a9a" stroke="#9b9a9a"></path><path d="M448 468L494 399L413 401Z" fill="#9b9a9a" stroke="#9b9a9a"></path><path d="M371 617L454 578L445 559Z" fill="#a5a5a5" stroke="#a5a5a5"></path><path d="M540 554L540 465L487 466Z" fill="#a2a1a1" stroke="#a2a1a1"></path><path d="M458 605L454 578L371 617Z" fill="#949393" stroke="#949393"></path><path d="M366 160L301 171L358 271Z" fill="#979797" stroke="#979797"></path><path d="M358 271L301 171L263 213Z" fill="#8d8c8c" stroke="#8d8c8c"></path><path d="M255 181L146 164L145 213Z" fill="#8a8888" stroke="#8a8888"></path><path d="M499 331L385 345L413 401Z" fill="#868585" stroke="#868585"></path><path d="M20 549L0 612L59 615Z" fill="#838181" stroke="#838181"></path><path d="M0 689L113 697L84 625Z" fill="#868585" stroke="#868585"></path><path d="M143 675L113 697L157 682Z" fill="#8a8888" stroke="#8a8888"></path><path d="M0 513L0 612L20 549Z" fill="#949393" stroke="#949393"></path><path d="M487 466L494 399L448 468Z" fill="#a2a1a1" stroke="#a2a1a1"></path><path d="M164 101L146 164L255 181Z" fill="#8a8888" stroke="#8a8888"></path><path d="M111 203L72 182L68 262Z" fill="#979797" stroke="#979797"></path><path d="M0 689L84 625L59 615Z" fill="#9b9a9a" stroke="#9b9a9a"></path><path d="M157 682L212 751L164 682Z" fill="#8a8888" stroke="#8a8888"></path><path d="M246 723L315 657L219 638Z" fill="#a5a5a5" stroke="#a5a5a5"></path><path d="M441 269L406 223L358 271Z" fill="#a5a5a5" stroke="#a5a5a5"></path><path d="M246 723L219 638L164 682Z" fill="#838181" stroke="#838181"></path><path d="M315 657L399 677L371 617Z" fill="#838181" stroke="#838181"></path><path d="M212 751L246 723L164 682Z" fill="#9b9a9a" stroke="#9b9a9a"></path><path d="M90 145L72 182L111 203Z" fill="#a5a5a5" stroke="#a5a5a5"></path><path d="M399 677L458 605L371 617Z" fill="#9b9a9a" stroke="#9b9a9a"></path><path d="M540 465L540 442L487 466Z" fill="#838181" stroke="#838181"></path><path d="M494 399L499 331L413 401Z" fill="#838181" stroke="#838181"></path><path d="M441 269L478 245L406 223Z" fill="#868585" stroke="#868585"></path><path d="M327 701L399 677L315 657Z" fill="#949393" stroke="#949393"></path><path d="M72 182L0 218L51 262Z" fill="#9b9a9a" stroke="#9b9a9a"></path><path d="M406 223L366 160L358 271Z" fill="#8d8c8c" stroke="#8d8c8c"></path><path d="M164 101L90 145L146 164Z" fill="#868585" stroke="#868585"></path><path d="M427 174L366 160L406 223Z" fill="#a2a1a1" stroke="#a2a1a1"></path><path d="M499 331L480 264L441 269Z" fill="#9b9a9a" stroke="#9b9a9a"></path><path d="M113 697L212 751L157 682Z" fill="#868585" stroke="#868585"></path><path d="M246 723L323 756L327 701Z" fill="#a5a5a5" stroke="#a5a5a5"></path><path d="M428 705L419 682L399 677Z" fill="#868585" stroke="#868585"></path><path d="M146 164L90 145L111 203Z" fill="#a5a5a5" stroke="#a5a5a5"></path><path d="M72 182L0 175L0 218Z" fill="#949393" stroke="#949393"></path><path d="M261 119L255 181L301 171Z" fill="#918f8f" stroke="#918f8f"></path><path d="M428 705L399 677L369 743Z" fill="#8d8c8c" stroke="#8d8c8c"></path><path d="M399 677L419 682L458 605Z" fill="#8d8c8c" stroke="#8d8c8c"></path><path d="M283 83L261 119L301 171Z" fill="#8d8c8c" stroke="#8d8c8c"></path><path d="M540 271L478 245L480 264Z" fill="#838181" stroke="#838181"></path><path d="M480 264L478 245L441 269Z" fill="#a2a1a1" stroke="#a2a1a1"></path><path d="M487 466L445 559L540 554Z" fill="#a2a1a1" stroke="#a2a1a1"></path><path d="M487 466L540 442L494 399Z" fill="#9b9a9a" stroke="#9b9a9a"></path><path d="M494 399L540 393L499 331Z" fill="#8d8c8c" stroke="#8d8c8c"></path><path d="M499 331L540 271L480 264Z" fill="#9b9a9a" stroke="#9b9a9a"></path><path d="M540 554L445 559L454 578Z" fill="#8a8888" stroke="#8a8888"></path><path d="M540 554L454 578L540 592Z" fill="#9b9a9a" stroke="#9b9a9a"></path><path d="M540 442L540 393L494 399Z" fill="#a5a5a5" stroke="#a5a5a5"></path><path d="M0 612L0 689L59 615Z" fill="#838181" stroke="#838181"></path><path d="M113 697L140 804L212 751Z" fill="#9e9e9e" stroke="#9e9e9e"></path><path d="M419 682L486 633L458 605Z" fill="#8d8c8c" stroke="#8d8c8c"></path><path d="M478 245L427 174L406 223Z" fill="#838181" stroke="#838181"></path><path d="M352 70L283 83L301 171Z" fill="#9e9e9e" stroke="#9e9e9e"></path><path d="M263 783L323 756L246 723Z" fill="#8d8c8c" stroke="#8d8c8c"></path><path d="M419 682L428 705L486 633Z" fill="#9b9a9a" stroke="#9b9a9a"></path><path d="M261 119L164 101L255 181Z" fill="#8d8c8c" stroke="#8d8c8c"></path><path d="M82 123L0 175L72 182Z" fill="#8d8c8c" stroke="#8d8c8c"></path><path d="M82 123L72 182L90 145Z" fill="#949393" stroke="#949393"></path><path d="M164 101L82 123L90 145Z" fill="#918f8f" stroke="#918f8f"></path><path d="M148 816L238 775L212 751Z" fill="#a2a1a1" stroke="#a2a1a1"></path><path d="M212 751L238 775L246 723Z" fill="#9e9e9e" stroke="#9e9e9e"></path><path d="M369 743L399 677L327 701Z" fill="#868585" stroke="#868585"></path><path d="M323 756L369 743L327 701Z" fill="#8a8888" stroke="#8a8888"></path><path d="M540 592L454 578L458 605Z" fill="#918f8f" stroke="#918f8f"></path><path d="M540 393L540 316L499 331Z" fill="#8a8888" stroke="#8a8888"></path><path d="M478 245L519 204L427 174Z" fill="#a2a1a1" stroke="#a2a1a1"></path><path d="M427 174L382 131L366 160Z" fill="#9e9e9e" stroke="#9e9e9e"></path><path d="M261 119L168 60L164 101Z" fill="#868585" stroke="#868585"></path><path d="M44 753L78 753L113 697Z" fill="#838181" stroke="#838181"></path><path d="M249 848L263 783L238 775Z" fill="#949393" stroke="#949393"></path><path d="M238 775L263 783L246 723Z" fill="#a5a5a5" stroke="#a5a5a5"></path><path d="M323 756L414 789L369 743Z" fill="#8d8c8c" stroke="#8d8c8c"></path><path d="M352 70L301 171L366 160Z" fill="#9e9e9e" stroke="#9e9e9e"></path><path d="M540 658L540 592L486 633Z" fill="#8d8c8c" stroke="#8d8c8c"></path><path d="M486 633L540 592L458 605Z" fill="#949393" stroke="#949393"></path><path d="M0 689L44 753L113 697Z" fill="#8d8c8c" stroke="#8d8c8c"></path><path d="M78 753L140 804L113 697Z" fill="#a2a1a1" stroke="#a2a1a1"></path><path d="M540 316L540 271L499 331Z" fill="#979797" stroke="#979797"></path><path d="M427 174L455 134L382 131Z" fill="#868585" stroke="#868585"></path><path d="M80 800L140 804L78 753Z" fill="#838181" stroke="#838181"></path><path d="M243 28L168 60L261 119Z" fill="#a2a1a1" stroke="#a2a1a1"></path><path d="M164 101L150 45L82 123Z" fill="#868585" stroke="#868585"></path><path d="M82 123L0 97L0 175Z" fill="#9b9a9a" stroke="#9b9a9a"></path><path d="M540 271L519 204L478 245Z" fill="#979797" stroke="#979797"></path><path d="M0 689L0 752L44 753Z" fill="#868585" stroke="#868585"></path><path d="M80 800L148 816L140 804Z" fill="#838181" stroke="#838181"></path><path d="M519 204L455 134L427 174Z" fill="#868585" stroke="#868585"></path><path d="M382 131L352 70L366 160Z" fill="#949393" stroke="#949393"></path><path d="M80 800L78 753L44 753Z" fill="#a5a5a5" stroke="#a5a5a5"></path><path d="M140 804L148 816L212 751Z" fill="#9b9a9a" stroke="#9b9a9a"></path><path d="M455 134L409 97L382 131Z" fill="#838181" stroke="#838181"></path><path d="M195 0L150 45L168 60Z" fill="#8d8c8c" stroke="#8d8c8c"></path><path d="M409 97L352 70L382 131Z" fill="#9b9a9a" stroke="#9b9a9a"></path><path d="M57 810L80 800L44 753Z" fill="#949393" stroke="#949393"></path><path d="M499 724L486 633L428 705Z" fill="#979797" stroke="#979797"></path><path d="M499 724L540 658L486 633Z" fill="#838181" stroke="#838181"></path><path d="M243 28L261 119L283 83Z" fill="#9b9a9a" stroke="#9b9a9a"></path><path d="M168 60L150 45L164 101Z" fill="#979797" stroke="#979797"></path><path d="M37 54L0 97L82 123Z" fill="#8d8c8c" stroke="#8d8c8c"></path><path d="M453 767L499 724L428 705Z" fill="#868585" stroke="#868585"></path><path d="M414 789L428 705L369 743Z" fill="#a2a1a1" stroke="#a2a1a1"></path><path d="M414 789L323 756L358 855Z" fill="#a5a5a5" stroke="#a5a5a5"></path><path d="M298 842L323 756L263 783Z" fill="#a2a1a1" stroke="#a2a1a1"></path><path d="M414 789L453 767L428 705Z" fill="#868585" stroke="#868585"></path><path d="M80 800L89 909L148 816Z" fill="#949393" stroke="#949393"></path><path d="M0 752L57 810L44 753Z" fill="#9e9e9e" stroke="#9e9e9e"></path><path d="M272 0L243 28L283 83Z" fill="#868585" stroke="#868585"></path><path d="M243 922L249 848L192 927Z" fill="#868585" stroke="#868585"></path><path d="M148 816L249 848L238 775Z" fill="#a5a5a5" stroke="#a5a5a5"></path><path d="M249 848L298 842L263 783Z" fill="#9e9e9e" stroke="#9e9e9e"></path><path d="M519 204L540 170L455 134Z" fill="#9e9e9e" stroke="#9e9e9e"></path><path d="M455 134L454 67L409 97Z" fill="#9b9a9a" stroke="#9b9a9a"></path><path d="M540 271L540 170L519 204Z" fill="#8a8888" stroke="#8a8888"></path><path d="M114 0L37 54L150 45Z" fill="#9e9e9e" stroke="#9e9e9e"></path><path d="M150 45L37 54L82 123Z" fill="#a2a1a1" stroke="#a2a1a1"></path><path d="M363 0L336 31L352 70Z" fill="#8a8888" stroke="#8a8888"></path><path d="M352 70L336 31L283 83Z" fill="#979797" stroke="#979797"></path><path d="M434 41L352 70L409 97Z" fill="#979797" stroke="#979797"></path><path d="M37 54L0 70L0 97Z" fill="#979797" stroke="#979797"></path><path d="M540 170L540 158L455 134Z" fill="#a5a5a5" stroke="#a5a5a5"></path><path d="M540 753L540 719L499 724Z" fill="#8a8888" stroke="#8a8888"></path><path d="M499 724L540 719L540 658Z" fill="#9b9a9a" stroke="#9b9a9a"></path><path d="M540 753L499 724L453 767Z" fill="#a2a1a1" stroke="#a2a1a1"></path><path d="M272 0L195 0L243 28Z" fill="#949393" stroke="#949393"></path><path d="M243 28L195 0L168 60Z" fill="#9e9e9e" stroke="#9e9e9e"></path><path d="M540 78L454 67L455 134Z" fill="#8a8888" stroke="#8a8888"></path><path d="M336 31L272 0L283 83Z" fill="#a5a5a5" stroke="#a5a5a5"></path><path d="M320 0L272 0L336 31Z" fill="#8a8888" stroke="#8a8888"></path><path d="M298 842L358 855L323 756Z" fill="#979797" stroke="#979797"></path><path d="M414 789L513 812L453 767Z" fill="#979797" stroke="#979797"></path><path d="M379 871L358 855L339 918Z" fill="#8a8888" stroke="#8a8888"></path><path d="M195 0L114 0L150 45Z" fill="#918f8f" stroke="#918f8f"></path><path d="M37 54L0 0L0 70Z" fill="#868585" stroke="#868585"></path><path d="M363 0L320 0L336 31Z" fill="#9b9a9a" stroke="#9b9a9a"></path><path d="M0 752L0 829L57 810Z" fill="#868585" stroke="#868585"></path><path d="M57 810L62 895L80 800Z" fill="#868585" stroke="#868585"></path><path d="M456 0L434 41L454 67Z" fill="#949393" stroke="#949393"></path><path d="M454 67L434 41L409 97Z" fill="#a2a1a1" stroke="#a2a1a1"></path><path d="M513 812L540 753L453 767Z" fill="#a2a1a1" stroke="#a2a1a1"></path><path d="M402 0L363 0L352 70Z" fill="#868585" stroke="#868585"></path><path d="M114 0L67 0L37 54Z" fill="#8d8c8c" stroke="#8d8c8c"></path><path d="M339 918L358 855L298 842Z" fill="#8a8888" stroke="#8a8888"></path><path d="M358 855L379 871L414 789Z" fill="#8a8888" stroke="#8a8888"></path><path d="M243 922L298 842L249 848Z" fill="#a5a5a5" stroke="#a5a5a5"></path><path d="M456 0L402 0L434 41Z" fill="#979797" stroke="#979797"></path><path d="M434 41L402 0L352 70Z" fill="#868585" stroke="#868585"></path><path d="M410 875L513 812L414 789Z" fill="#979797" stroke="#979797"></path><path d="M396 960L410 875L379 871Z" fill="#868585" stroke="#868585"></path><path d="M379 871L410 875L414 789Z" fill="#a5a5a5" stroke="#a5a5a5"></path><path d="M540 158L540 78L455 134Z" fill="#9b9a9a" stroke="#9b9a9a"></path><path d="M0 829L62 895L57 810Z" fill="#8d8c8c" stroke="#8d8c8c"></path><path d="M67 0L0 0L37 54Z" fill="#918f8f" stroke="#918f8f"></path><path d="M192 927L249 848L148 816Z" fill="#979797" stroke="#979797"></path><path d="M62 895L89 909L80 800Z" fill="#918f8f" stroke="#918f8f"></path><path d="M519 870L540 805L513 812Z" fill="#979797" stroke="#979797"></path><path d="M513 812L540 805L540 753Z" fill="#949393" stroke="#949393"></path><path d="M89 909L192 927L148 816Z" fill="#918f8f" stroke="#918f8f"></path><path d="M62 895L56 960L89 909Z" fill="#9e9e9e" stroke="#9e9e9e"></path><path d="M0 829L0 879L62 895Z" fill="#a5a5a5" stroke="#a5a5a5"></path><path d="M540 0L456 0L454 67Z" fill="#8a8888" stroke="#8a8888"></path><path d="M243 922L339 918L298 842Z" fill="#8a8888" stroke="#8a8888"></path><path d="M410 875L519 870L513 812Z" fill="#9b9a9a" stroke="#9b9a9a"></path><path d="M324 960L339 918L243 922Z" fill="#8a8888" stroke="#8a8888"></path><path d="M198 960L226 960L192 927Z" fill="#979797" stroke="#979797"></path><path d="M192 927L226 960L243 922Z" fill="#a2a1a1" stroke="#a2a1a1"></path><path d="M198 960L192 927L153 960Z" fill="#838181" stroke="#838181"></path><path d="M153 960L192 927L89 909Z" fill="#918f8f" stroke="#918f8f"></path><path d="M56 960L153 960L89 909Z" fill="#a2a1a1" stroke="#a2a1a1"></path><path d="M457 927L410 875L396 960Z" fill="#a5a5a5" stroke="#a5a5a5"></path><path d="M457 927L519 870L410 875Z" fill="#8d8c8c" stroke="#8d8c8c"></path><path d="M226 960L324 960L243 922Z" fill="#918f8f" stroke="#918f8f"></path><path d="M324 960L338 960L339 918Z" fill="#a2a1a1" stroke="#a2a1a1"></path><path d="M540 78L540 0L454 67Z" fill="#838181" stroke="#838181"></path><path d="M396 960L379 871L339 918Z" fill="#949393" stroke="#949393"></path><path d="M0 960L56 960L62 895Z" fill="#8a8888" stroke="#8a8888"></path><path d="M338 960L396 960L339 918Z" fill="#a2a1a1" stroke="#a2a1a1"></path><path d="M0 879L0 960L62 895Z" fill="#979797" stroke="#979797"></path><path d="M515 960L540 917L457 927Z" fill="#8a8888" stroke="#8a8888"></path><path d="M457 927L540 917L519 870Z" fill="#a5a5a5" stroke="#a5a5a5"></path><path d="M519 870L540 917L540 805Z" fill="#a2a1a1" stroke="#a2a1a1"></path><path d="M396 960L515 960L457 927Z" fill="#979797" stroke="#979797"></path><path d="M515 960L540 960L540 917Z" fill="#9b9a9a" stroke="#9b9a9a"></path></g></svg>